<mxfile host="www.draw.io" modified="2019-10-28T14:27:07.769Z" agent="Mozilla/5.0 (Macintosh; Intel Mac OS X 10_14_1) AppleWebKit/537.36 (KHTML, like Gecko) Chrome/77.0.3865.120 Safari/537.36" etag="Fj4m0quxtqMM8l1Cdv3R" version="12.1.7" type="github" pages="1">
  <diagram id="6FKfcIvOeZ0T_24MmPEe" name="第 1 页">
    <mxGraphModel dx="946" dy="571" grid="1" gridSize="10" guides="1" tooltips="1" connect="1" arrows="1" fold="1" page="1" pageScale="1" pageWidth="1327" pageHeight="1169" math="0" shadow="0">
      <root>
        <mxCell id="0"/>
        <mxCell id="1" parent="0"/>
        <mxCell id="KV9YtKSeoymKHfhfjrCS-7" value="" style="shape=note;whiteSpace=wrap;html=1;backgroundOutline=1;darkOpacity=0.05;" vertex="1" parent="1">
          <mxGeometry x="465" y="542" width="255" height="158" as="geometry"/>
        </mxCell>
        <mxCell id="bmfqaIszuD7k2YfsK9zt-1" value="界面选取内容&lt;br&gt;添加标注" style="rounded=0;whiteSpace=wrap;html=1;" parent="1" vertex="1">
          <mxGeometry x="50" y="160" width="120" height="60" as="geometry"/>
        </mxCell>
        <mxCell id="bmfqaIszuD7k2YfsK9zt-2" value="根据标注生成规则" style="rounded=0;whiteSpace=wrap;html=1;" parent="1" vertex="1">
          <mxGeometry x="140" y="260" width="120" height="60" as="geometry"/>
        </mxCell>
        <mxCell id="bmfqaIszuD7k2YfsK9zt-3" value="修改规则" style="rounded=0;whiteSpace=wrap;html=1;" parent="1" vertex="1">
          <mxGeometry x="140" y="350" width="120" height="60" as="geometry"/>
        </mxCell>
        <mxCell id="bmfqaIszuD7k2YfsK9zt-4" value="" style="endArrow=classic;html=1;exitX=0.5;exitY=1;exitDx=0;exitDy=0;entryX=0.5;entryY=0;entryDx=0;entryDy=0;" parent="1" source="bmfqaIszuD7k2YfsK9zt-1" target="bmfqaIszuD7k2YfsK9zt-2" edge="1">
          <mxGeometry width="50" height="50" relative="1" as="geometry">
            <mxPoint x="110" y="300" as="sourcePoint"/>
            <mxPoint x="160" y="250" as="targetPoint"/>
          </mxGeometry>
        </mxCell>
        <mxCell id="bmfqaIszuD7k2YfsK9zt-5" value="" style="endArrow=classic;html=1;exitX=0.5;exitY=1;exitDx=0;exitDy=0;entryX=0.5;entryY=0;entryDx=0;entryDy=0;" parent="1" source="bmfqaIszuD7k2YfsK9zt-2" target="bmfqaIszuD7k2YfsK9zt-3" edge="1">
          <mxGeometry width="50" height="50" relative="1" as="geometry">
            <mxPoint x="110" y="370" as="sourcePoint"/>
            <mxPoint x="110" y="430" as="targetPoint"/>
          </mxGeometry>
        </mxCell>
        <mxCell id="XkHL08ya3uAFKRS17An--1" value="进入标注页面" style="shape=card;whiteSpace=wrap;html=1;" parent="1" vertex="1">
          <mxGeometry x="160" y="20" width="80" height="100" as="geometry"/>
        </mxCell>
        <mxCell id="XkHL08ya3uAFKRS17An--4" value="" style="endArrow=classic;html=1;exitX=0.5;exitY=1;exitDx=0;exitDy=0;exitPerimeter=0;entryX=0.5;entryY=0;entryDx=0;entryDy=0;" parent="1" source="XkHL08ya3uAFKRS17An--1" target="bmfqaIszuD7k2YfsK9zt-1" edge="1">
          <mxGeometry width="50" height="50" relative="1" as="geometry">
            <mxPoint x="109" y="130" as="sourcePoint"/>
            <mxPoint x="109" y="200" as="targetPoint"/>
          </mxGeometry>
        </mxCell>
        <mxCell id="XkHL08ya3uAFKRS17An--5" value="选择规则提取的元素类型" style="rounded=0;whiteSpace=wrap;html=1;" parent="1" vertex="1">
          <mxGeometry x="140" y="440" width="120" height="60" as="geometry"/>
        </mxCell>
        <mxCell id="XkHL08ya3uAFKRS17An--6" value="" style="endArrow=classic;html=1;exitX=0.5;exitY=1;exitDx=0;exitDy=0;entryX=0.5;entryY=0;entryDx=0;entryDy=0;" parent="1" source="bmfqaIszuD7k2YfsK9zt-3" target="XkHL08ya3uAFKRS17An--5" edge="1">
          <mxGeometry width="50" height="50" relative="1" as="geometry">
            <mxPoint x="120" y="320" as="sourcePoint"/>
            <mxPoint x="120" y="350" as="targetPoint"/>
          </mxGeometry>
        </mxCell>
        <mxCell id="XkHL08ya3uAFKRS17An--8" value="自动匹配&lt;br&gt;添加标注" style="rounded=0;whiteSpace=wrap;html=1;" parent="1" vertex="1">
          <mxGeometry x="210" y="160" width="120" height="60" as="geometry"/>
        </mxCell>
        <mxCell id="XkHL08ya3uAFKRS17An--9" value="" style="endArrow=classic;html=1;exitX=0.5;exitY=1;exitDx=0;exitDy=0;entryX=0.5;entryY=0;entryDx=0;entryDy=0;" parent="1" source="XkHL08ya3uAFKRS17An--8" target="bmfqaIszuD7k2YfsK9zt-2" edge="1">
          <mxGeometry width="50" height="50" relative="1" as="geometry">
            <mxPoint x="280" y="360" as="sourcePoint"/>
            <mxPoint x="330" y="310" as="targetPoint"/>
            <Array as="points"/>
          </mxGeometry>
        </mxCell>
        <mxCell id="XkHL08ya3uAFKRS17An--11" value="" style="endArrow=classic;html=1;exitX=0.5;exitY=1;exitDx=0;exitDy=0;exitPerimeter=0;entryX=0.5;entryY=0;entryDx=0;entryDy=0;" parent="1" source="XkHL08ya3uAFKRS17An--1" target="XkHL08ya3uAFKRS17An--8" edge="1">
          <mxGeometry width="50" height="50" relative="1" as="geometry">
            <mxPoint x="280" y="220" as="sourcePoint"/>
            <mxPoint x="330" y="170" as="targetPoint"/>
          </mxGeometry>
        </mxCell>
        <mxCell id="DkTlWnZVP09rbSDj4pex-1" value="关联当前动作&lt;br&gt;输出json对象" style="rounded=0;whiteSpace=wrap;html=1;" parent="1" vertex="1">
          <mxGeometry x="140" y="532" width="120" height="60" as="geometry"/>
        </mxCell>
        <mxCell id="DkTlWnZVP09rbSDj4pex-2" value="" style="endArrow=classic;html=1;exitX=0.5;exitY=1;exitDx=0;exitDy=0;entryX=0.5;entryY=0;entryDx=0;entryDy=0;" parent="1" source="XkHL08ya3uAFKRS17An--5" target="DkTlWnZVP09rbSDj4pex-1" edge="1">
          <mxGeometry width="50" height="50" relative="1" as="geometry">
            <mxPoint x="210" y="420" as="sourcePoint"/>
            <mxPoint x="210" y="450" as="targetPoint"/>
          </mxGeometry>
        </mxCell>
        <mxCell id="DkTlWnZVP09rbSDj4pex-5" value="" style="endArrow=classic;html=1;exitX=0.5;exitY=1;exitDx=0;exitDy=0;entryX=0.5;entryY=0;entryDx=0;entryDy=0;" parent="1" source="DkTlWnZVP09rbSDj4pex-17" target="DkTlWnZVP09rbSDj4pex-15" edge="1">
          <mxGeometry width="50" height="50" relative="1" as="geometry">
            <mxPoint x="500" y="93" as="sourcePoint"/>
            <mxPoint x="500" y="152" as="targetPoint"/>
          </mxGeometry>
        </mxCell>
        <mxCell id="DkTlWnZVP09rbSDj4pex-10" value="关键字匹配器" style="shape=process;whiteSpace=wrap;html=1;backgroundOutline=1;" parent="1" vertex="1">
          <mxGeometry x="620" y="223" width="120" height="40" as="geometry"/>
        </mxCell>
        <mxCell id="DkTlWnZVP09rbSDj4pex-11" value="" style="shape=flexArrow;endArrow=classic;html=1;exitX=0;exitY=0.5;exitDx=0;exitDy=0;" parent="1" source="DkTlWnZVP09rbSDj4pex-10" target="DkTlWnZVP09rbSDj4pex-20" edge="1">
          <mxGeometry width="50" height="50" relative="1" as="geometry">
            <mxPoint x="490" y="273" as="sourcePoint"/>
            <mxPoint x="480" y="253" as="targetPoint"/>
          </mxGeometry>
        </mxCell>
        <mxCell id="DkTlWnZVP09rbSDj4pex-15" value="&lt;span style=&quot;white-space: normal&quot;&gt;协议对象&lt;/span&gt;" style="ellipse;whiteSpace=wrap;html=1;" parent="1" vertex="1">
          <mxGeometry x="455" y="133" width="90" height="50" as="geometry"/>
        </mxCell>
        <mxCell id="DkTlWnZVP09rbSDj4pex-17" value="&lt;span style=&quot;white-space: normal&quot;&gt;协议解析器&lt;/span&gt;" style="shape=process;whiteSpace=wrap;html=1;backgroundOutline=1;" parent="1" vertex="1">
          <mxGeometry x="440" y="53" width="120" height="40" as="geometry"/>
        </mxCell>
        <mxCell id="DkTlWnZVP09rbSDj4pex-20" value="协议专用匹配函数" style="shape=process;whiteSpace=wrap;html=1;backgroundOutline=1;" parent="1" vertex="1">
          <mxGeometry x="440" y="223" width="120" height="40" as="geometry"/>
        </mxCell>
        <mxCell id="DkTlWnZVP09rbSDj4pex-22" value="&lt;span style=&quot;white-space: normal&quot;&gt;匹配位置信息列表&lt;/span&gt;" style="ellipse;whiteSpace=wrap;html=1;" parent="1" vertex="1">
          <mxGeometry x="455" y="300" width="90" height="50" as="geometry"/>
        </mxCell>
        <mxCell id="DkTlWnZVP09rbSDj4pex-24" value="" style="endArrow=classic;html=1;exitX=0.5;exitY=1;exitDx=0;exitDy=0;" parent="1" source="DkTlWnZVP09rbSDj4pex-20" edge="1">
          <mxGeometry width="50" height="50" relative="1" as="geometry">
            <mxPoint x="500" y="260" as="sourcePoint"/>
            <mxPoint x="500" y="300" as="targetPoint"/>
          </mxGeometry>
        </mxCell>
        <mxCell id="DkTlWnZVP09rbSDj4pex-26" value="渲染函数" style="shape=process;whiteSpace=wrap;html=1;backgroundOutline=1;" parent="1" vertex="1">
          <mxGeometry x="815" y="223" width="120" height="40" as="geometry"/>
        </mxCell>
        <mxCell id="DkTlWnZVP09rbSDj4pex-27" value="" style="endArrow=classic;html=1;exitX=0.5;exitY=1;exitDx=0;exitDy=0;entryX=0.5;entryY=0;entryDx=0;entryDy=0;" parent="1" source="DkTlWnZVP09rbSDj4pex-15" target="DkTlWnZVP09rbSDj4pex-20" edge="1">
          <mxGeometry width="50" height="50" relative="1" as="geometry">
            <mxPoint x="499" y="183" as="sourcePoint"/>
            <mxPoint x="499" y="223" as="targetPoint"/>
          </mxGeometry>
        </mxCell>
        <mxCell id="DkTlWnZVP09rbSDj4pex-31" value="" style="endArrow=classic;html=1;exitX=0.5;exitY=1;exitDx=0;exitDy=0;entryX=0.5;entryY=0;entryDx=0;entryDy=0;" parent="1" source="DkTlWnZVP09rbSDj4pex-33" target="DkTlWnZVP09rbSDj4pex-32" edge="1">
          <mxGeometry width="50" height="50" relative="1" as="geometry">
            <mxPoint x="875" y="93" as="sourcePoint"/>
            <mxPoint x="875" y="152" as="targetPoint"/>
          </mxGeometry>
        </mxCell>
        <mxCell id="DkTlWnZVP09rbSDj4pex-32" value="&lt;span style=&quot;white-space: normal&quot;&gt;协议对象&lt;/span&gt;" style="ellipse;whiteSpace=wrap;html=1;" parent="1" vertex="1">
          <mxGeometry x="830" y="133" width="90" height="50" as="geometry"/>
        </mxCell>
        <mxCell id="DkTlWnZVP09rbSDj4pex-33" value="&lt;span style=&quot;white-space: normal&quot;&gt;协议解析器&lt;/span&gt;" style="shape=process;whiteSpace=wrap;html=1;backgroundOutline=1;" parent="1" vertex="1">
          <mxGeometry x="815" y="53" width="120" height="40" as="geometry"/>
        </mxCell>
        <mxCell id="DkTlWnZVP09rbSDj4pex-34" value="" style="endArrow=classic;html=1;exitX=0.5;exitY=1;exitDx=0;exitDy=0;entryX=0.5;entryY=0;entryDx=0;entryDy=0;" parent="1" source="DkTlWnZVP09rbSDj4pex-32" target="DkTlWnZVP09rbSDj4pex-26" edge="1">
          <mxGeometry width="50" height="50" relative="1" as="geometry">
            <mxPoint x="874" y="183" as="sourcePoint"/>
            <mxPoint x="875" y="223" as="targetPoint"/>
          </mxGeometry>
        </mxCell>
        <mxCell id="DkTlWnZVP09rbSDj4pex-35" value="渲染位置信息" style="ellipse;whiteSpace=wrap;html=1;" parent="1" vertex="1">
          <mxGeometry x="830" y="303" width="90" height="50" as="geometry"/>
        </mxCell>
        <mxCell id="DkTlWnZVP09rbSDj4pex-36" value="" style="endArrow=classic;html=1;exitX=0.5;exitY=1;exitDx=0;exitDy=0;entryX=0.5;entryY=0;entryDx=0;entryDy=0;" parent="1" source="DkTlWnZVP09rbSDj4pex-26" target="DkTlWnZVP09rbSDj4pex-35" edge="1">
          <mxGeometry width="50" height="50" relative="1" as="geometry">
            <mxPoint x="945" y="273" as="sourcePoint"/>
            <mxPoint x="985" y="243" as="targetPoint"/>
          </mxGeometry>
        </mxCell>
        <mxCell id="DkTlWnZVP09rbSDj4pex-37" value="手动标注模块" style="shape=process;whiteSpace=wrap;html=1;backgroundOutline=1;" parent="1" vertex="1">
          <mxGeometry x="815" y="393" width="120" height="40" as="geometry"/>
        </mxCell>
        <mxCell id="DkTlWnZVP09rbSDj4pex-38" value="" style="endArrow=classic;html=1;exitX=0.5;exitY=1;exitDx=0;exitDy=0;entryX=0.5;entryY=0;entryDx=0;entryDy=0;" parent="1" source="DkTlWnZVP09rbSDj4pex-35" target="DkTlWnZVP09rbSDj4pex-37" edge="1">
          <mxGeometry width="50" height="50" relative="1" as="geometry">
            <mxPoint x="1275" y="293" as="sourcePoint"/>
            <mxPoint x="1325" y="243" as="targetPoint"/>
          </mxGeometry>
        </mxCell>
        <mxCell id="DkTlWnZVP09rbSDj4pex-39" value="" style="endArrow=classic;html=1;exitX=0.5;exitY=1;exitDx=0;exitDy=0;entryX=0.5;entryY=0;entryDx=0;entryDy=0;" parent="1" source="DkTlWnZVP09rbSDj4pex-37" target="DkTlWnZVP09rbSDj4pex-40" edge="1">
          <mxGeometry width="50" height="50" relative="1" as="geometry">
            <mxPoint x="855" y="513" as="sourcePoint"/>
            <mxPoint x="875" y="473" as="targetPoint"/>
          </mxGeometry>
        </mxCell>
        <mxCell id="DkTlWnZVP09rbSDj4pex-40" value="标注位置信息" style="ellipse;whiteSpace=wrap;html=1;" parent="1" vertex="1">
          <mxGeometry x="830" y="473" width="90" height="50" as="geometry"/>
        </mxCell>
        <mxCell id="DkTlWnZVP09rbSDj4pex-41" value="规则生成器" style="shape=process;whiteSpace=wrap;html=1;backgroundOutline=1;" parent="1" vertex="1">
          <mxGeometry x="1060" y="145" width="120" height="40" as="geometry"/>
        </mxCell>
        <mxCell id="DkTlWnZVP09rbSDj4pex-42" value="匹配位置信息&lt;br&gt;标注位置信息" style="ellipse;whiteSpace=wrap;html=1;" parent="1" vertex="1">
          <mxGeometry x="1075" y="53" width="90" height="50" as="geometry"/>
        </mxCell>
        <mxCell id="DkTlWnZVP09rbSDj4pex-43" value="" style="endArrow=classic;html=1;exitX=0.5;exitY=1;exitDx=0;exitDy=0;entryX=0.5;entryY=0;entryDx=0;entryDy=0;" parent="1" source="DkTlWnZVP09rbSDj4pex-42" target="DkTlWnZVP09rbSDj4pex-41" edge="1">
          <mxGeometry width="50" height="50" relative="1" as="geometry">
            <mxPoint x="1230" y="153" as="sourcePoint"/>
            <mxPoint x="1280" y="103" as="targetPoint"/>
          </mxGeometry>
        </mxCell>
        <mxCell id="DkTlWnZVP09rbSDj4pex-44" value="" style="endArrow=classic;html=1;entryX=0.5;entryY=0;entryDx=0;entryDy=0;" parent="1" source="DkTlWnZVP09rbSDj4pex-41" target="DkTlWnZVP09rbSDj4pex-45" edge="1">
          <mxGeometry width="50" height="50" relative="1" as="geometry">
            <mxPoint x="1100" y="263" as="sourcePoint"/>
            <mxPoint x="1120" y="223" as="targetPoint"/>
          </mxGeometry>
        </mxCell>
        <mxCell id="DkTlWnZVP09rbSDj4pex-45" value="规则" style="ellipse;whiteSpace=wrap;html=1;" parent="1" vertex="1">
          <mxGeometry x="1075" y="227" width="90" height="50" as="geometry"/>
        </mxCell>
        <mxCell id="KV9YtKSeoymKHfhfjrCS-5" value="协议元素展示" style="ellipse;whiteSpace=wrap;html=1;" vertex="1" parent="1">
          <mxGeometry x="490" y="562" width="90" height="50" as="geometry"/>
        </mxCell>
        <mxCell id="KV9YtKSeoymKHfhfjrCS-9" value="标注元素展示" style="ellipse;whiteSpace=wrap;html=1;" vertex="1" parent="1">
          <mxGeometry x="490" y="630" width="90" height="50" as="geometry"/>
        </mxCell>
        <mxCell id="KV9YtKSeoymKHfhfjrCS-10" value="匹配元素展示" style="ellipse;whiteSpace=wrap;html=1;" vertex="1" parent="1">
          <mxGeometry x="602.5" y="562" width="90" height="50" as="geometry"/>
        </mxCell>
        <mxCell id="KV9YtKSeoymKHfhfjrCS-11" value="......" style="ellipse;whiteSpace=wrap;html=1;" vertex="1" parent="1">
          <mxGeometry x="602.5" y="630" width="90" height="50" as="geometry"/>
        </mxCell>
      </root>
    </mxGraphModel>
  </diagram>
</mxfile>
